<svg width="71" height="75" viewBox="0 0 71 75" fill="none" xmlns="http://www.w3.org/2000/svg">
<path d="M70.0609 51.0716L64.8312 60.0594C64.5201 60.5939 63.8594 60.8197 63.2826 60.5887L55.5844 57.5051C54.945 57.2492 54.6358 56.5273 54.894 55.8928C55.1521 55.2581 55.8795 54.9514 56.519 55.2078L63.2112 57.8882L67.3559 50.765L61.6774 46.3604C61.2697 46.0442 61.101 45.5115 61.2529 45.0208C62.8257 39.9405 62.8858 34.3411 61.2529 29.0668C61.101 28.576 61.2697 28.0434 61.6774 27.7272L67.3559 23.3226L63.2112 16.1993L56.519 18.8798C56.0391 19.0723 55.4898 18.9507 55.1374 18.5747C51.379 14.5649 46.5672 11.8059 41.2227 10.5959C40.7179 10.4817 40.3364 10.0699 40.2642 9.56091L39.2588 2.4776H30.9693L29.9639 9.5606C29.8917 10.0694 29.5102 10.4812 29.0054 10.5956C23.6607 11.8056 18.8491 14.5647 15.0907 18.5744C14.7383 18.9504 14.189 19.072 13.7091 18.8795L7.01695 16.199L2.87209 23.3223L8.55058 27.7268C8.95822 28.043 9.12692 28.5757 8.97507 29.0665C7.40227 34.1468 7.34219 39.7462 8.97507 45.0205C9.12692 45.5112 8.95822 46.0439 8.55058 46.3601L2.87209 50.7647L7.01695 57.8879L13.7091 55.2075C14.189 55.015 14.7385 55.1366 15.0907 55.5125C18.8491 59.5224 23.6609 62.2813 29.0054 63.4913C29.5102 63.6056 29.8917 64.0174 29.9639 64.5264L30.9693 71.6094H39.2588L40.2642 64.5264C40.3364 64.0175 40.7179 63.6058 41.2227 63.4913C44.1492 62.8289 46.931 61.6948 49.4905 60.1212C50.0771 59.7612 50.8463 59.9405 51.2093 60.5218C51.5725 61.1034 51.3918 61.8671 50.8057 62.2275C48.2576 63.7941 45.5071 64.9615 42.6189 65.7038L41.5803 73.021C41.4935 73.6322 40.9662 74.087 40.3439 74.087H29.8845C29.2623 74.087 28.7349 73.6322 28.6482 73.021L27.6096 65.7038C22.388 64.3631 17.6645 61.6547 13.8595 57.819L6.94579 60.5882C6.36883 60.8196 5.70837 60.5936 5.39718 60.0589L0.167372 51.0711C-0.143817 50.5364 -0.0105397 49.856 0.479653 49.4757L6.34682 44.9247C4.91947 39.7855 4.91916 34.3021 6.34682 29.1617L0.479653 24.6106C-0.0105397 24.2303 -0.143817 23.5499 0.167372 23.0152L5.39718 14.0274C5.70837 13.4927 6.36867 13.2669 6.94579 13.4981L13.8595 16.2673C17.6645 12.4317 22.388 9.72319 27.6096 8.3825L28.6482 1.06537C28.7348 0.454795 29.2621 0 29.8843 0H40.3438C40.966 0 41.4933 0.454795 41.5801 1.06599L42.6187 8.38312C47.8402 9.72381 52.5638 12.4323 56.3687 16.2679L63.2826 13.4987C63.8596 13.2679 64.5202 13.4932 64.8312 14.028L70.0609 23.0158C70.3721 23.5505 70.2388 24.2309 69.7486 24.6113L63.8814 29.1623C65.3088 34.3015 65.3091 39.7849 63.8814 44.9253L69.7486 49.4763C70.2388 49.8565 70.3721 50.5367 70.0609 51.0716ZM33.0689 42.9367L39.3114 32.4069C39.661 31.8171 39.4627 31.0578 38.8684 30.711C38.2742 30.3643 37.5089 30.5609 37.1592 31.1506L30.9167 41.6804C30.5671 42.2702 30.7655 43.0294 31.3597 43.3763C31.9543 43.7232 32.7195 43.5262 33.0689 42.9367ZM28.1937 32.2946C27.7063 31.8112 26.9159 31.811 26.4282 32.2946L22.5247 36.1677C22.0375 36.6513 22.0372 37.4358 22.5247 37.9197L26.4282 41.7928C26.9159 42.2766 27.7062 42.2764 28.1937 41.7928C28.6814 41.3089 28.6814 40.5246 28.1937 40.0408L25.1731 37.0439L28.1937 34.0469C28.6814 33.5628 28.6814 32.7785 28.1937 32.2946ZM42.7612 42.1556C43.0807 42.1556 43.4003 42.0347 43.644 41.7928L47.5475 37.9195C48.0347 37.4359 48.035 36.6515 47.5475 36.1676L43.644 32.2945C43.1565 31.8109 42.366 31.8109 41.8785 32.2945C41.3908 32.7784 41.3908 33.5627 41.8785 34.0464L44.8991 37.0434L41.8785 40.0405C41.0893 40.8239 41.6589 42.1556 42.7612 42.1556ZM27.8076 56.8161C30.1907 57.6831 32.6615 58.1146 35.1261 58.1145C50.549 58.1137 60.8855 42.1349 54.3708 28.188C49.4497 17.6526 36.8076 13.0536 26.1891 17.9363C12.6898 24.1442 9.62913 41.9929 20.4257 52.2529C20.9237 52.7263 21.7141 52.7093 22.1909 52.2152C22.6678 51.7212 22.6508 50.9369 22.1528 50.4636C12.6329 41.4164 15.3217 25.6646 27.2389 20.1842C36.6084 15.8759 47.763 19.9335 52.1051 29.2298C56.4474 38.5259 52.3578 49.5943 42.9887 53.9029C38.45 55.9901 33.3637 56.1985 28.6667 54.4899C28.0195 54.2547 27.3021 54.5844 27.0647 55.2265C26.8277 55.869 27.1601 56.5807 27.8076 56.8161Z" fill="white" fill-opacity="0.6"/>
<path d="M70.8326 51.8433L65.603 60.8311C65.2918 61.3657 64.6312 61.5914 64.0544 61.3604L56.3561 58.2769C55.7167 58.0209 55.4076 57.299 55.6657 56.6646C55.9238 56.0299 56.6512 55.7231 57.2908 55.9795L63.9829 58.66L68.1276 51.5367L62.4491 47.1322C62.0415 46.816 61.8728 46.2833 62.0246 45.7926C63.5974 40.7122 63.6575 35.1129 62.0246 29.8385C61.8728 29.3478 62.0415 28.8151 62.4491 28.4989L68.1276 24.0943L63.9829 16.9711L57.2908 19.6515C56.8109 19.844 56.2616 19.7225 55.9092 19.3465C52.1507 15.3366 47.339 12.5777 41.9945 11.3677C41.4896 11.2534 41.1082 10.8416 41.0359 10.3326L40.0306 3.24934H31.741L30.7357 10.3323C30.6634 10.8412 30.282 11.2529 29.7771 11.3674C24.4324 12.5774 19.6209 15.3365 15.8624 19.3462C15.51 19.7221 14.9607 19.8437 14.4808 19.6512L7.7887 16.9708L3.64383 24.094L9.32232 28.4986C9.72996 28.8148 9.89866 29.3475 9.74681 29.8382C8.17402 34.9185 8.11393 40.5179 9.74681 45.7922C9.89866 46.283 9.72996 46.8156 9.32232 47.1319L3.64383 51.5364L7.7887 58.6597L14.4808 55.9792C14.9607 55.7867 15.5102 55.9083 15.8624 56.2843C19.6209 60.2941 24.4326 63.0531 29.7771 64.2631C30.282 64.3774 30.6634 64.7891 30.7357 65.2981L31.741 72.3811H40.0306L41.0359 65.2981C41.1082 64.7893 41.4896 64.3775 41.9945 64.2631C44.921 63.6006 47.7028 62.4665 50.2622 60.8929C50.8488 60.5329 51.6181 60.7122 51.9811 61.2935C52.3442 61.8751 52.1635 62.6389 51.5775 62.9992C49.0293 64.5658 46.2789 65.7332 43.3906 66.4756L42.352 73.7927C42.2652 74.4039 41.7379 74.8587 41.1157 74.8587H30.6562C30.034 74.8587 29.5067 74.4039 29.4199 73.7927L28.3813 66.4756C23.1598 65.1349 18.4362 62.4264 14.6313 58.5908L7.71753 61.3599C7.14057 61.5913 6.48011 61.3654 6.16893 60.8307L0.939115 51.8429C0.627927 51.3082 0.761204 50.6277 1.2514 50.2474L7.11857 45.6964C5.69122 40.5572 5.69091 35.0738 7.11857 29.9334L1.2514 25.3824C0.761204 25.0021 0.627927 24.3217 0.939115 23.787L6.16893 14.7991C6.48011 14.2644 7.14041 14.0387 7.71753 14.2699L14.6313 17.0391C18.4362 13.2034 23.1598 10.4949 28.3813 9.15424L29.4199 1.83711C29.5065 1.22653 30.0338 0.771736 30.6561 0.771736H41.1155C41.7378 0.771736 42.2651 1.22653 42.3519 1.83772L43.3905 9.15486C48.612 10.4956 53.3355 13.204 57.1405 17.0397L64.0544 14.2705C64.6313 14.0396 65.2919 14.2649 65.603 14.7998L70.8326 23.7876C71.1438 24.3223 71.0105 25.0027 70.5204 25.383L64.6532 29.934C66.0805 35.0732 66.0808 40.5566 64.6532 45.697L70.5204 50.2481C71.0105 50.6282 71.1438 51.3085 70.8326 51.8433ZM33.8407 43.7084L40.0832 33.1786C40.4328 32.5888 40.2344 31.8296 39.6401 31.4827C39.046 31.136 38.2807 31.3326 37.9309 31.9223L31.6884 42.4521C31.3388 43.0419 31.5372 43.8012 32.1315 44.148C32.7261 44.4949 33.4913 44.2979 33.8407 43.7084ZM28.9654 33.0663C28.4781 32.5829 27.6876 32.5828 27.1999 33.0663L23.2965 36.9395C22.8092 37.4231 22.8089 38.2075 23.2965 38.6914L27.1999 42.5645C27.6876 43.0483 28.4779 43.0481 28.9654 42.5645C29.4531 42.0806 29.4531 41.2963 28.9654 40.8126L25.9449 37.8156L28.9654 34.8186C29.4531 34.3346 29.4531 33.5503 28.9654 33.0663ZM43.5329 42.9274C43.8524 42.9274 44.172 42.8064 44.4158 42.5645L48.3192 38.6913C48.8064 38.2077 48.8068 37.4232 48.3192 36.9393L44.4158 33.0662C43.9282 32.5826 43.1378 32.5826 42.6502 33.0662C42.1626 33.5501 42.1626 34.3344 42.6502 34.8182L45.6708 37.8151L42.6502 40.8123C41.861 41.5956 42.4307 42.9274 43.5329 42.9274ZM28.5793 57.5878C30.9624 58.4548 33.4332 58.8864 35.8979 58.8862C51.3208 58.8854 61.6573 42.9066 55.1426 28.9597C50.2215 18.4243 37.5793 13.8253 26.9608 18.708C13.4616 24.916 10.4009 42.7646 21.1974 53.0247C21.6954 53.498 22.4859 53.481 22.9627 52.9869C23.4396 52.4929 23.4226 51.7086 22.9246 51.2354C13.4046 42.1881 16.0934 26.4363 28.0107 20.956C37.3802 16.6476 48.5347 20.7053 52.8769 30.0016C57.2192 39.2977 53.1295 50.366 43.7605 54.6746C39.2217 56.7618 34.1355 56.9703 29.4385 55.2616C28.7913 55.0264 28.0739 55.3561 27.8365 55.9983C27.5994 56.6407 27.9318 57.3524 28.5793 57.5878Z" fill="white" fill-opacity="0.6"/>
</svg>
