<svg width="74" height="73" viewBox="0 0 74 73" fill="none" xmlns="http://www.w3.org/2000/svg">
<path d="M23.3184 55.8796C19.1036 55.8796 15.687 59.2964 15.687 63.511C15.687 67.7258 19.1037 71.1425 23.3184 71.1425C27.5332 71.1425 30.9498 67.7257 30.9498 63.511C30.95 59.2964 27.5332 55.8796 23.3184 55.8796ZM23.3184 67.7508C20.9769 67.7508 19.0787 65.8527 19.0787 63.5112C19.0787 61.1696 20.9769 59.2715 23.3184 59.2715C25.6599 59.2715 27.558 61.1696 27.558 63.5112C27.5582 65.8527 25.6599 67.7508 23.3184 67.7508Z" fill="white" fill-opacity="0.6"/>
<path d="M55.5404 55.8796C51.3256 55.8796 47.9089 59.2964 47.9089 63.511C47.9089 67.7258 51.3257 71.1425 55.5404 71.1425C59.755 71.1425 63.1718 67.7257 63.1718 63.511C63.1718 59.2964 59.7552 55.8796 55.5404 55.8796ZM55.5404 67.7508C53.1988 67.7508 51.3007 65.8527 51.3007 63.5112C51.3007 61.1696 53.1988 59.2715 55.5404 59.2715C57.8819 59.2715 59.78 61.1696 59.78 63.5112C59.7802 65.8527 57.8819 67.7508 55.5404 67.7508Z" fill="white" fill-opacity="0.6"/>
<path d="M72.7536 11.3626C72.4004 10.9768 71.9173 10.7353 71.3969 10.6842L16.1958 9.92103L14.6695 5.25728C13.5942 2.13963 10.6748 0.0348949 7.37711 0H1.69589C0.759248 0 0 0.759248 0 1.69589C0 2.63254 0.759248 3.39179 1.69589 3.39179H7.37711C9.22102 3.43252 10.8447 4.61652 11.4473 6.35964L22.2162 38.8359L21.3683 40.7861C20.4226 43.2249 20.7066 45.9697 22.1315 48.1632C23.5427 50.3176 25.9169 51.6472 28.4911 51.7246H61.4762C62.4129 51.7246 63.1721 50.9654 63.1721 50.0288C63.1721 49.0921 62.4129 48.3329 61.4762 48.3329H28.491C27.0372 48.2965 25.699 47.5317 24.9296 46.2978C24.1687 45.0789 24.0124 43.5773 24.5056 42.2276L25.1841 40.7013L60.8825 36.9703C64.8037 36.5384 68.0293 33.6864 68.9381 29.8475L73.0083 12.8038C73.1917 12.313 73.0943 11.761 72.7536 11.3626ZM65.631 29.0845C65.0805 31.5557 62.9824 33.3785 60.4586 33.5786L25.1841 37.2248L17.2981 13.3128L69.2771 14.076L65.631 29.0845Z" fill="white" fill-opacity="0.6"/>
<path d="M24.2189 56.7801C20.0041 56.7801 16.5875 60.1969 16.5875 64.4115C16.5875 68.6264 20.0042 72.043 24.2189 72.043C28.4337 72.043 31.8503 68.6262 31.8503 64.4115C31.8505 60.1969 28.4337 56.7801 24.2189 56.7801ZM24.2189 68.6514C21.8774 68.6514 19.9792 66.7532 19.9792 64.4117C19.9792 62.0702 21.8774 60.1721 24.2189 60.1721C26.5604 60.1721 28.4585 62.0702 28.4585 64.4117C28.4587 66.7532 26.5604 68.6514 24.2189 68.6514Z" fill="white" fill-opacity="0.6"/>
<path d="M56.4409 56.7801C52.2261 56.7801 48.8094 60.1969 48.8094 64.4115C48.8094 68.6264 52.2262 72.043 56.4409 72.043C60.6555 72.043 64.0723 68.6262 64.0723 64.4115C64.0723 60.1969 60.6557 56.7801 56.4409 56.7801ZM56.4409 68.6514C54.0994 68.6514 52.2012 66.7532 52.2012 64.4117C52.2012 62.0702 54.0994 60.1721 56.4409 60.1721C58.7824 60.1721 60.6805 62.0702 60.6805 64.4117C60.6807 66.7532 58.7824 68.6514 56.4409 68.6514Z" fill="white" fill-opacity="0.6"/>
<path d="M73.6541 12.2631C73.301 11.8773 72.8178 11.6358 72.2974 11.5847L17.0963 10.8216L15.57 6.15782C14.4948 3.04016 11.5753 0.93543 8.27762 0.900536H2.59641C1.65976 0.900536 0.900513 1.65978 0.900513 2.59643C0.900513 3.53307 1.65976 4.29232 2.59641 4.29232H8.27762C10.1215 4.33306 11.7452 5.51705 12.3478 7.26017L23.1167 39.7365L22.2689 41.6867C21.3231 44.1254 21.6072 46.8703 23.032 49.0638C24.4432 51.2182 26.8174 52.5478 29.3916 52.6252H62.3767C63.3134 52.6252 64.0726 51.8659 64.0726 50.9293C64.0726 49.9926 63.3134 49.2334 62.3767 49.2334H29.3915C27.9377 49.197 26.5996 48.4323 25.8301 47.1983C25.0692 45.9794 24.9129 44.4778 25.4062 43.1281L26.0846 41.6018L61.783 37.8708C65.7043 37.4389 68.9298 34.5869 69.8386 30.748L73.9088 13.7044C74.0922 13.2136 73.9948 12.6616 73.6541 12.2631ZM66.5315 29.985C65.981 32.4562 63.8829 34.2791 61.3591 34.4792L26.0846 38.1253L18.1987 14.2134L70.1776 14.9765L66.5315 29.985Z" fill="white" fill-opacity="0.6"/>
</svg>
