<svg width="71" height="74" viewBox="0 0 71 74" fill="none" xmlns="http://www.w3.org/2000/svg">
<path d="M70.0201 51.2486L64.8504 60.1334C64.5428 60.6618 63.8898 60.8849 63.3196 60.6566L55.7097 57.6084C55.0776 57.3554 54.772 56.6417 55.0272 56.0146C55.2823 55.3871 56.0014 55.0839 56.6336 55.3374L63.2489 57.9871L67.3461 50.9455L61.7328 46.5915C61.3298 46.2789 61.163 45.7524 61.3131 45.2673C62.8679 40.2452 62.9273 34.7101 61.3131 29.4962C61.163 29.0111 61.3298 28.4846 61.7328 28.172L67.3461 23.818L63.2489 16.7764L56.6336 19.4261C56.1592 19.6164 55.6162 19.4962 55.2678 19.1246C51.5525 15.1607 46.796 12.4334 41.5127 11.2373C41.0137 11.1243 40.6366 10.7173 40.5652 10.2141L39.5714 3.21207H31.3769L30.3831 10.2138C30.3116 10.7168 29.9346 11.1238 29.4355 11.237C24.1522 12.4331 19.3958 15.1606 15.6805 19.1242C15.3321 19.4959 14.7891 19.6161 14.3147 19.4258L7.69934 16.7761L3.60202 23.8176L9.21538 28.1717C9.61833 28.4843 9.7851 29.0108 9.635 29.4959C8.08024 34.518 8.02085 40.0531 9.635 45.267C9.7851 45.7521 9.61833 46.2786 9.21538 46.5912L3.60202 50.9452L7.69934 57.9868L14.3147 55.3371C14.7891 55.1468 15.3323 55.267 15.6805 55.6386C19.3958 59.6025 24.1523 62.3298 29.4355 63.5259C29.9346 63.6389 30.3116 64.0459 30.3831 64.5491L31.3769 71.5508H39.5714L40.5652 64.5491C40.6366 64.0461 41.0137 63.639 41.5127 63.5259C44.4057 62.8711 47.1556 61.75 49.6856 60.1944C50.2655 59.8385 51.0259 60.0158 51.3848 60.5904C51.7438 61.1654 51.5651 61.9203 50.9858 62.2765C48.4669 63.8252 45.748 64.9792 42.8929 65.713L41.8662 72.9462C41.7804 73.5504 41.2591 74 40.644 74H30.3046C29.6895 74 29.1682 73.5504 29.0824 72.9462L28.0557 65.713C22.8941 64.3877 18.2247 61.7103 14.4634 57.9187L7.62899 60.6561C7.05865 60.8848 6.40577 60.6615 6.09815 60.1329L0.92833 51.2482C0.620711 50.7196 0.75246 50.047 1.23703 49.6711L7.0369 45.1722C5.62592 40.092 5.62561 34.6715 7.0369 29.5901L1.23703 25.0912C0.75246 24.7153 0.620711 24.0427 0.92833 23.5141L6.09815 14.6294C6.40577 14.1008 7.05849 13.8776 7.62899 14.1062L14.4634 16.8436C18.2247 13.052 22.8941 10.3745 28.0557 9.04923L29.0824 1.81603C29.168 1.21246 29.6893 0.762886 30.3044 0.762886H40.6439C41.259 0.762886 41.7803 1.21246 41.866 1.81665L42.8927 9.04985C48.0544 10.3752 52.7237 13.0526 56.485 16.8442L63.3196 14.1068C63.8899 13.8786 64.543 14.1013 64.8504 14.63L70.0201 23.5147C70.3277 24.0433 70.196 24.7159 69.7114 25.0918L63.9115 29.5907C65.3225 34.6709 65.3228 40.0914 63.9115 45.1728L69.7114 49.6717C70.196 50.0475 70.3277 50.7199 70.0201 51.2486ZM33.4525 43.2071L39.6234 32.798C39.9689 32.215 39.7729 31.4645 39.1854 31.1216C38.5981 30.7788 37.8415 30.9732 37.4958 31.5561L31.3249 41.9652C30.9793 42.5482 31.1754 43.2987 31.7629 43.6416C32.3507 43.9845 33.1071 43.7898 33.4525 43.2071ZM28.6332 32.6871C28.1514 32.2092 27.37 32.209 26.8879 32.6871L23.0292 36.5157C22.5476 36.9938 22.5473 37.7693 23.0292 38.2476L26.8879 42.0763C27.37 42.5545 28.1512 42.5543 28.6332 42.0763C29.1153 41.5979 29.1153 40.8226 28.6332 40.3444L25.6472 37.3818L28.6332 34.4192C29.1153 33.9407 29.1153 33.1654 28.6332 32.6871ZM43.0336 42.4349C43.3494 42.4349 43.6653 42.3154 43.9063 42.0763L47.7649 38.2475C48.2466 37.7694 48.2469 36.9939 47.7649 36.5156L43.9063 32.6869C43.4243 32.2088 42.6429 32.2088 42.161 32.6869C41.6789 33.1653 41.6789 33.9406 42.161 34.4188L45.1469 37.3814L42.161 40.3441C41.3808 41.1185 41.9439 42.4349 43.0336 42.4349ZM28.2515 56.9272C30.6072 57.7843 33.0497 58.2109 35.4861 58.2107C50.7321 58.21 60.95 42.4144 54.51 28.6275C49.6454 18.213 37.1482 13.6667 26.6515 18.4934C13.3071 24.6302 10.2816 42.2741 20.9543 52.4164C21.4465 52.8844 22.2279 52.8675 22.6992 52.3791C23.1707 51.8908 23.1539 51.1155 22.6616 50.6477C13.2508 41.7042 15.9088 26.133 27.6893 20.7156C36.9514 16.4566 47.978 20.4678 52.2703 29.6574C56.5628 38.8469 52.5201 49.7883 43.2585 54.0474C38.7718 56.1107 33.7439 56.3168 29.1008 54.6277C28.461 54.3952 27.7518 54.7211 27.5172 55.3559C27.2828 55.991 27.6114 56.6945 28.2515 56.9272Z" fill="white" fill-opacity="0.6"/>
<path d="M69.2572 50.4857L64.0876 59.3705C63.7799 59.8989 63.1269 60.1221 62.5567 59.8937L54.9468 56.8455C54.3147 56.5925 54.0091 55.8788 54.2643 55.2517C54.5194 54.6243 55.2385 54.321 55.8707 54.5745L62.4861 57.2242L66.5832 50.1827L60.9699 45.8286C60.5669 45.5161 60.4001 44.9895 60.5503 44.5044C62.105 39.4823 62.1644 33.9472 60.5503 28.7333C60.4001 28.2483 60.5669 27.7217 60.9699 27.4091L66.5832 23.0551L62.4861 16.0135L55.8707 18.6632C55.3963 18.8535 54.8533 18.7333 54.5049 18.3617C50.7896 14.3978 46.0331 11.6705 40.7499 10.4744C40.2508 10.3614 39.8738 9.95439 39.8023 9.45124L38.8085 2.44918H30.614L29.6202 9.45093C29.5488 9.95393 29.1717 10.361 28.6727 10.4741C23.3893 11.6702 18.6329 14.3977 14.9176 18.3614C14.5692 18.733 14.0262 18.8532 13.5518 18.6629L6.93646 16.0132L2.83914 23.0548L8.4525 27.4088C8.85546 27.7214 9.02223 28.2479 8.87212 28.733C7.31736 33.7551 7.25797 39.2902 8.87212 44.5041C9.02223 44.9892 8.85546 45.5157 8.4525 45.8283L2.83914 50.1824L6.93646 57.2239L13.5518 54.5742C14.0262 54.3839 14.5694 54.5041 14.9176 54.8758C18.6329 58.8396 23.3895 61.5669 28.6727 62.763C29.1717 62.876 29.5488 63.283 29.6202 63.7862L30.614 70.7879H38.8085L39.8023 63.7862C39.8738 63.2832 40.2508 62.8762 40.7499 62.763C43.6428 62.1082 46.3927 60.9871 48.9228 59.4315C49.5027 59.0756 50.2631 59.2529 50.6219 59.8275C50.9809 60.4025 50.8022 61.1574 50.223 61.5136C47.704 63.0623 44.9851 64.2163 42.13 64.9502L41.1033 72.1834C41.0175 72.7875 40.4962 73.2371 39.8812 73.2371H29.5417C28.9266 73.2371 28.4053 72.7875 28.3195 72.1834L27.2928 64.9502C22.1312 63.6248 17.4618 60.9474 13.7005 57.1558L6.86612 59.8932C6.29577 60.1219 5.64289 59.8986 5.33527 59.37L0.165452 50.4853C-0.142167 49.9567 -0.0104188 49.2841 0.474151 48.9082L6.27402 44.4093C4.86304 39.3291 4.86273 33.9086 6.27402 28.8272L0.474151 24.3283C-0.0104188 23.9524 -0.142167 23.2798 0.165452 22.7512L5.33527 13.8665C5.64289 13.3379 6.29562 13.1148 6.86612 13.3433L13.7005 16.0807C17.4618 12.2891 22.1312 9.61166 27.2928 8.28635L28.3195 1.05315C28.4052 0.449578 28.9264 0 29.5415 0H39.881C40.4961 0 41.0174 0.449578 41.1031 1.05376L42.1298 8.28696C47.2915 9.61227 51.9608 12.2897 55.7221 16.0813L62.5567 13.3439C63.1271 13.1157 63.7801 13.3384 64.0876 13.8671L69.2572 22.7518C69.5648 23.2804 69.4331 23.953 68.9485 24.3289L63.1487 28.8278C64.5596 33.908 64.5599 39.3285 63.1487 44.4099L68.9485 48.9088C69.4331 49.2846 69.5648 49.957 69.2572 50.4857ZM32.6896 42.4442L38.8605 32.0351C39.2061 31.4521 39.01 30.7016 38.4225 30.3587C37.8352 30.0159 37.0786 30.2104 36.7329 30.7933L30.562 41.2023C30.2165 41.7853 30.4125 42.5359 31 42.8787C31.5878 43.2216 32.3442 43.0269 32.6896 42.4442ZM27.8703 31.9242C27.3885 31.4463 26.6071 31.4461 26.125 31.9242L22.2663 35.7528C21.7847 36.2309 21.7844 37.0064 22.2663 37.4847L26.125 41.3134C26.6071 41.7916 27.3883 41.7915 27.8703 41.3134C28.3524 40.8351 28.3524 40.0597 27.8703 39.5815L24.8843 36.6189L27.8703 33.6563C28.3524 33.1778 28.3524 32.4025 27.8703 31.9242ZM42.2707 41.6721C42.5865 41.6721 42.9024 41.5525 43.1434 41.3134L47.0021 37.4846C47.4837 37.0065 47.484 36.2311 47.0021 35.7527L43.1434 31.924C42.6615 31.446 41.8801 31.446 41.3981 31.924C40.916 32.4024 40.916 33.1777 41.3981 33.6559L44.3841 36.6185L41.3981 39.5812C40.618 40.3556 41.1811 41.6721 42.2707 41.6721ZM27.4886 56.1643C29.8444 57.0214 32.2868 57.448 34.7232 57.4479C49.9692 57.4471 60.1871 41.6516 53.7472 27.8646C48.8825 17.4501 36.3853 12.9038 25.8887 17.7305C12.5443 23.8673 9.51867 41.5112 20.1914 51.6535C20.6837 52.1215 21.4651 52.1047 21.9364 51.6162C22.4078 51.1279 22.391 50.3526 21.8987 49.8848C12.488 40.9413 15.1459 25.3702 26.9265 19.9527C36.1885 15.6937 47.2151 19.7049 51.5074 28.8945C55.7999 38.084 51.7572 49.0254 42.4956 53.2845C38.0089 55.3478 32.981 55.5539 28.3379 53.8649C27.6981 53.6323 26.9889 53.9582 26.7543 54.593C26.5199 55.2281 26.8485 55.9317 27.4886 56.1643Z" fill="white" fill-opacity="0.6"/>
</svg>
