<svg width="31" height="31" viewBox="0 0 31 31" fill="none" xmlns="http://www.w3.org/2000/svg">
<path d="M28.7643 0H2.23574C1.00092 0 0 1.00092 0 2.23574V28.7643C0 29.9991 1.00092 31 2.23574 31H28.7643C29.9991 31 31 29.9991 31 28.7643V2.23574C31 1.00092 29.9991 0 28.7643 0V0ZM10.9959 23.4316H7.22092V12.0746H10.9959V23.4316ZM9.10852 10.5238H9.08392C7.81717 10.5238 6.99789 9.65179 6.99789 8.56194C6.99789 7.4475 7.84224 6.59961 9.13359 6.59961C10.4249 6.59961 11.2196 7.4475 11.2442 8.56194C11.2442 9.65179 10.4249 10.5238 9.10852 10.5238ZM24.6076 23.4316H20.8331V17.3559C20.8331 15.829 20.2865 14.7876 18.9207 14.7876C17.8779 14.7876 17.2568 15.4901 16.9839 16.1681C16.8841 16.4108 16.8597 16.75 16.8597 17.0894V23.4316H13.085C13.085 23.4316 13.1344 13.1401 13.085 12.0746H16.8597V13.6826C17.3613 12.9088 18.2589 11.8081 20.2617 11.8081C22.7453 11.8081 24.6076 13.4312 24.6076 16.9195V23.4316Z" fill="white"/>
</svg>
