<svg width="34" height="28" viewBox="0 0 34 28" fill="none" xmlns="http://www.w3.org/2000/svg">
<path d="M34 3.27038C32.7356 3.825 31.3884 4.19263 29.9837 4.37112C31.4287 3.50837 32.5316 2.15262 33.0501 0.5185C31.7029 1.32175 30.2154 1.88913 28.6301 2.20575C27.3509 0.843625 25.5276 0 23.5386 0C19.6796 0 16.5729 3.13225 16.5729 6.97213C16.5729 7.52463 16.6196 8.05587 16.7344 8.56162C10.9395 8.279 5.81187 5.50163 2.36725 1.27075C1.76587 2.31413 1.41313 3.50838 1.41313 4.794C1.41313 7.208 2.65625 9.34787 4.50925 10.5868C3.38937 10.5655 2.29075 10.2404 1.36 9.72825C1.36 9.7495 1.36 9.77712 1.36 9.80475C1.36 13.192 3.77612 16.0055 6.9445 16.6536C6.37712 16.8088 5.75875 16.8831 5.117 16.8831C4.67075 16.8831 4.22025 16.8576 3.79737 16.7641C4.7005 19.5245 7.26325 21.5539 10.3105 21.6197C7.939 23.4749 4.92788 24.5926 1.66813 24.5926C1.0965 24.5926 0.54825 24.5671 0 24.497C3.08762 26.4881 6.74688 27.625 10.693 27.625C23.5195 27.625 30.532 17 30.532 7.79025C30.532 7.48212 30.5214 7.18463 30.5065 6.88925C31.8899 5.9075 33.0522 4.68138 34 3.27038Z" fill="white"/>
</svg>
