<svg width="22" height="29" viewBox="0 0 22 29" fill="none" xmlns="http://www.w3.org/2000/svg">
<path d="M21.1207 18.2879L18.3643 15.6039C18.1763 15.4203 17.8761 15.4208 17.6885 15.6049L13.05 20.1531V0.483315C13.05 0.216537 12.8335 0 12.5667 0H8.70001C8.43323 0 8.21669 0.216537 8.21669 0.483315V20.1531L3.57816 15.6049C3.39062 15.4212 3.09094 15.4208 2.90295 15.6039L0.146473 18.2879C0.0527324 18.3788 0 18.5035 0 18.634C0 18.7645 0.0531855 18.8892 0.146473 18.9801L10.2965 28.8628C10.3902 28.9542 10.5121 29 10.6334 29C10.7552 29 10.8765 28.9541 10.9707 28.8628L21.1207 18.9801C21.214 18.8892 21.2667 18.7645 21.2667 18.634C21.2667 18.5035 21.214 18.3788 21.1207 18.2879Z" fill="white"/>
</svg>
